<svg width="61" height="50" viewBox="0 0 61 50" fill="none" xmlns="http://www.w3.org/2000/svg">
<g clip-path="url(#clip0)">
<path d="M23.1534 4.3816C24.4676 3.21952 26.1927 2.62368 27.9492 2.72515C29.7057 2.82662 31.3497 3.61709 32.5194 4.92266L55.1241 30.1511C56.2939 31.4566 56.8937 33.1704 56.7915 34.9153C56.6894 36.6602 55.8937 38.2933 54.5794 39.4553C53.2652 40.6174 51.5401 41.2133 49.7836 41.1118C48.0271 41.0103 46.3831 40.2199 45.2134 38.9143C45.2134 38.9143 31.6521 27.1405 31.5846 25.394C31.5171 23.6474 31.4187 20.4937 30.8607 19.3933C30.3026 18.293 22.6087 13.6859 22.6087 13.6859C21.4389 12.3803 20.8391 10.6666 20.9413 8.92167C21.0434 7.17678 21.8391 5.54367 23.1534 4.3816V4.3816Z" fill="#FC6341"/>
<path d="M30.5117 3.71928C36.8246 6.81426 32.5067 16.5481 31.5712 19.8202C30.6358 23.0922 27.3913 22.7378 24.2271 26.4985C21.0629 30.2593 22.6866 34.4447 23.6951 34.9176C23.9728 35.5466 16.6584 42.3835 16.6584 42.3835C16.1684 43.2267 15.5159 43.9658 14.7384 44.5585C13.9608 45.1512 13.0734 45.5859 12.1267 45.8379C11.18 46.0899 10.1926 46.1542 9.22089 46.0271C8.24919 45.9 7.31219 45.5841 6.46341 45.0973C5.61463 44.6104 4.87068 43.9623 4.27404 43.1899C3.6774 42.4175 3.23976 41.5359 2.98609 40.5954C2.73242 39.655 2.66771 38.6741 2.79564 37.7088C2.92356 36.7435 3.24163 35.8127 3.73167 34.9695L20.3167 6.43299C21.3064 4.73011 22.9365 3.48754 24.8484 2.97862C26.7603 2.4697 28.7975 2.73612 30.5117 3.71928V3.71928Z" fill="#FC6341"/>
<path d="M3.70411 39.5519C3.74401 38.7957 3.93345 38.0547 4.26163 37.3712C4.5898 36.6877 5.05028 36.0751 5.61677 35.5684C6.18327 35.0617 6.84468 34.6708 7.56324 34.418C8.28181 34.1652 9.04346 34.0555 9.80471 34.0952C9.80471 34.0952 19.7613 34.5603 23.6725 34.9328C23.7944 35.3294 19.2235 39.1213 19.8215 39.5519C20.4195 39.9826 25.4381 34.9091 25.8983 34.933L31.3357 35.2161C32.8731 35.2962 34.3155 35.9796 35.3456 37.1162C36.3758 38.2527 36.9092 39.7492 36.8287 41.2765C36.7481 42.8037 36.0601 44.2366 34.916 45.26C33.7719 46.2833 32.2655 46.8133 30.7281 46.7332L9.35536 45.9909C6.15367 45.8242 3.53632 42.7325 3.70411 39.5519Z" fill="#FC6341"/>
<path d="M28.9046 23.8171C29.2249 24.7828 29.3434 25.803 29.253 26.815C29.1627 27.827 28.8652 28.8094 28.379 29.7019C27.6803 30.7745 25.5068 32.8672 25.5068 32.8672C25.5068 32.8672 24.1732 32.7726 25.0013 32.1471C28.4601 28.863 28.7445 27.6428 28.9046 23.8171Z" fill="#FC6341"/>
<path d="M27.4923 25.8297C27.9848 26.708 28.1805 27.7199 28.0505 28.7159C27.8555 29.298 27.6199 29.8659 27.3453 30.4153C27.3453 30.4153 26.8145 30.4457 27.0557 30.0948C27.9732 28.3039 27.9264 27.6968 27.4923 25.8297Z" fill="#FC6341"/>
<path d="M26.6305 27.1153C27.0766 28.0184 27.2191 29.0396 27.0368 30.028C26.8114 30.5996 26.5462 31.1548 26.243 31.6895C26.243 31.6895 25.711 31.6924 25.9704 31.3543C26.6513 29.5465 26.9663 29.0034 26.6305 27.1153Z" fill="#FC6341"/>
</g>
<defs>
<clipPath id="clip0">
<rect width="61" height="50" fill="white"/>
</clipPath>
</defs>
</svg>
