<svg width="191" height="373" viewBox="0 0 191 373" fill="none" xmlns="http://www.w3.org/2000/svg">
<path d="M1.90986 34.9273L0.706126 40.3863L-4.38334 42.6987L-8.26907 39.5521L-7.06533 34.0931L-1.97587 31.7807L1.90986 34.9273Z" fill="#012C3D"/>
<path d="M14.3442 44.9964L13.1405 50.4554L8.05099 52.7679L4.16526 49.6213L5.36899 44.1622L10.4585 41.8498L14.3442 44.9964Z" fill="#012C3D"/>
<path d="M26.7785 55.0655L25.5748 60.5246L20.4853 62.837L16.5996 59.6904L17.8033 54.2314L22.8928 51.9189L26.7785 55.0655Z" fill="#012C3D"/>
<path d="M39.2129 65.1347L38.0091 70.5937L32.9197 72.9061L29.0339 69.7595L30.2377 64.3005L35.3271 61.9881L39.2129 65.1347Z" fill="#012C3D"/>
<path d="M51.6472 75.2038L50.4435 80.6628L45.354 82.9752L41.4683 79.8286L42.672 74.3696L47.7615 72.0572L51.6472 75.2038Z" fill="#012C3D"/>
<path d="M64.0815 85.2729L62.8778 90.7319L57.7883 93.0444L53.9026 89.8978L55.1063 84.4387L60.1958 82.1263L64.0815 85.2729Z" fill="#012C3D"/>
<path d="M76.5159 95.342L75.3121 100.801L70.2227 103.113L66.3369 99.9669L67.5407 94.5079L72.6302 92.1954L76.5159 95.342Z" fill="#012C3D"/>
<path d="M88.9502 105.411L87.7465 110.87L82.657 113.183L78.7713 110.036L79.975 104.577L85.0645 102.265L88.9502 105.411Z" fill="#012C3D"/>
<path d="M101.385 115.48L100.181 120.939L95.0913 123.252L91.2056 120.105L92.4093 114.646L97.4988 112.334L101.385 115.48Z" fill="#012C3D"/>
<path d="M113.819 125.549L112.615 131.008L107.526 133.321L103.64 130.174L104.844 124.715L109.933 122.403L113.819 125.549Z" fill="#012C3D"/>
<path d="M126.253 135.619L125.049 141.078L119.96 143.39L116.074 140.243L117.278 134.784L122.367 132.472L126.253 135.619Z" fill="#012C3D"/>
<path d="M138.688 145.688L137.484 151.147L132.394 153.459L128.509 150.313L129.712 144.853L134.802 142.541L138.688 145.688Z" fill="#012C3D"/>
<path d="M151.122 155.757L149.918 161.216L144.829 163.528L140.943 160.382L142.147 154.923L147.236 152.61L151.122 155.757Z" fill="#012C3D"/>
<path d="M163.556 165.826L162.352 171.285L157.263 173.597L153.377 170.451L154.581 164.992L159.67 162.679L163.556 165.826Z" fill="#012C3D"/>
<path d="M175.991 175.895L174.787 181.354L169.697 183.667L165.812 180.52L167.015 175.061L172.105 172.748L175.991 175.895Z" fill="#012C3D"/>
<path d="M188.425 185.964L187.221 191.423L182.132 193.736L178.246 190.589L179.45 185.13L184.539 182.818L188.425 185.964Z" fill="#012C3D"/>
<path d="M2.3871 59.7622L1.18336 65.2212L-3.90611 67.5336L-7.79184 64.387L-6.5881 58.928L-1.49863 56.6156L2.3871 59.7622Z" fill="#012C3D"/>
<path d="M14.8215 69.8313L13.6177 75.2903L8.52825 77.6028L4.64252 74.4562L5.84626 68.9971L10.9357 66.6847L14.8215 69.8313Z" fill="#012C3D"/>
<path d="M27.2558 79.9004L26.052 85.3595L20.9626 87.6719L17.0768 84.5253L18.2806 79.0663L23.3701 76.7538L27.2558 79.9004Z" fill="#012C3D"/>
<path d="M39.6901 89.9696L38.4864 95.4286L33.3969 97.741L29.5112 94.5944L30.7149 89.1354L35.8044 86.823L39.6901 89.9696Z" fill="#012C3D"/>
<path d="M52.1245 100.039L50.9207 105.498L45.8313 107.81L41.9455 104.664L43.1493 99.2045L48.2387 96.8921L52.1245 100.039Z" fill="#012C3D"/>
<path d="M64.5588 110.108L63.3551 115.567L58.2656 117.879L54.3799 114.733L55.5836 109.274L60.6731 106.961L64.5588 110.108Z" fill="#012C3D"/>
<path d="M76.9931 120.177L75.7894 125.636L70.6999 127.948L66.8142 124.802L68.0179 119.343L73.1074 117.03L76.9931 120.177Z" fill="#012C3D"/>
<path d="M89.4275 130.246L88.2237 135.705L83.1343 138.018L79.2485 134.871L80.4523 129.412L85.5417 127.099L89.4275 130.246Z" fill="#012C3D"/>
<path d="M101.862 140.315L100.658 145.774L95.5686 148.087L91.6829 144.94L92.8866 139.481L97.9761 137.169L101.862 140.315Z" fill="#012C3D"/>
<path d="M114.296 150.384L113.092 155.843L108.003 158.156L104.117 155.009L105.321 149.55L110.41 147.238L114.296 150.384Z" fill="#012C3D"/>
<path d="M126.73 160.453L125.527 165.912L120.437 168.225L116.552 165.078L117.755 159.619L122.845 157.307L126.73 160.453Z" fill="#012C3D"/>
<path d="M139.165 170.523L137.961 175.982L132.872 178.294L128.986 175.147L130.19 169.688L135.279 167.376L139.165 170.523Z" fill="#012C3D"/>
<path d="M151.599 180.592L150.395 186.051L145.306 188.363L141.42 185.217L142.624 179.758L147.713 177.445L151.599 180.592Z" fill="#012C3D"/>
<path d="M164.033 190.661L162.83 196.12L157.74 198.432L153.855 195.286L155.058 189.827L160.148 187.514L164.033 190.661Z" fill="#012C3D"/>
<path d="M176.468 200.73L175.264 206.189L170.175 208.501L166.289 205.355L167.493 199.896L172.582 197.583L176.468 200.73Z" fill="#012C3D"/>
<path d="M2.86436 84.5971L1.66062 90.0561L-3.42884 92.3685L-7.31457 89.2219L-6.11084 83.7629L-1.02137 81.4505L2.86436 84.5971Z" fill="#012C3D"/>
<path d="M15.2987 94.6662L14.095 100.125L9.00548 102.438L5.11975 99.2911L6.32349 93.832L11.413 91.5196L15.2987 94.6662Z" fill="#012C3D"/>
<path d="M27.733 104.735L26.5293 110.194L21.4398 112.507L17.5541 109.36L18.7578 103.901L23.8473 101.589L27.733 104.735Z" fill="#012C3D"/>
<path d="M40.1674 114.804L38.9636 120.263L33.8742 122.576L29.9884 119.429L31.1922 113.97L36.2816 111.658L40.1674 114.804Z" fill="#012C3D"/>
<path d="M52.6017 124.874L51.398 130.333L46.3085 132.645L42.4228 129.498L43.6265 124.039L48.716 121.727L52.6017 124.874Z" fill="#012C3D"/>
<path d="M65.036 134.943L63.8323 140.402L58.7428 142.714L54.8571 139.568L56.0608 134.109L61.1503 131.796L65.036 134.943Z" fill="#012C3D"/>
<path d="M77.4704 145.012L76.2666 150.471L71.1772 152.783L67.2914 149.637L68.4952 144.178L73.5846 141.865L77.4704 145.012Z" fill="#012C3D"/>
<path d="M89.9047 155.081L88.701 160.54L83.6115 162.852L79.7258 159.706L80.9295 154.247L86.019 151.934L89.9047 155.081Z" fill="#012C3D"/>
<path d="M102.339 165.15L101.135 170.609L96.0458 172.922L92.1601 169.775L93.3638 164.316L98.4533 162.003L102.339 165.15Z" fill="#012C3D"/>
<path d="M114.773 175.219L113.57 180.678L108.48 182.991L104.594 179.844L105.798 174.385L110.888 172.073L114.773 175.219Z" fill="#012C3D"/>
<path d="M127.208 185.288L126.004 190.747L120.915 193.06L117.029 189.913L118.233 184.454L123.322 182.142L127.208 185.288Z" fill="#012C3D"/>
<path d="M139.642 195.357L138.438 200.816L133.349 203.129L129.463 199.982L130.667 194.523L135.756 192.211L139.642 195.357Z" fill="#012C3D"/>
<path d="M152.076 205.427L150.873 210.886L145.783 213.198L141.897 210.051L143.101 204.592L148.191 202.28L152.076 205.427Z" fill="#012C3D"/>
<path d="M164.511 215.496L163.307 220.955L158.218 223.267L154.332 220.121L155.536 214.662L160.625 212.349L164.511 215.496Z" fill="#012C3D"/>
<path d="M3.3416 109.432L2.13786 114.891L-2.95161 117.203L-6.83734 114.057L-5.6336 108.598L-0.544135 106.285L3.3416 109.432Z" fill="#012C3D"/>
<path d="M15.776 119.501L14.5722 124.96L9.48275 127.273L5.59702 124.126L6.80076 118.667L11.8902 116.355L15.776 119.501Z" fill="#012C3D"/>
<path d="M28.2103 129.57L27.0065 135.029L21.9171 137.342L18.0313 134.195L19.2351 128.736L24.3245 126.424L28.2103 129.57Z" fill="#012C3D"/>
<path d="M40.6446 139.639L39.4409 145.098L34.3514 147.411L30.4657 144.264L31.6694 138.805L36.7589 136.493L40.6446 139.639Z" fill="#012C3D"/>
<path d="M53.079 149.708L51.8752 155.168L46.7858 157.48L42.9 154.333L44.1038 148.874L49.1932 146.562L53.079 149.708Z" fill="#012C3D"/>
<path d="M65.5133 159.778L64.3096 165.237L59.2201 167.549L55.3344 164.402L56.5381 158.943L61.6276 156.631L65.5133 159.778Z" fill="#012C3D"/>
<path d="M77.9476 169.847L76.7439 175.306L71.6544 177.618L67.7687 174.472L68.9724 169.013L74.0619 166.7L77.9476 169.847Z" fill="#012C3D"/>
<path d="M90.382 179.916L89.1782 185.375L84.0888 187.687L80.203 184.541L81.4068 179.082L86.4962 176.769L90.382 179.916Z" fill="#012C3D"/>
<path d="M102.816 189.985L101.613 195.444L96.5231 197.756L92.6374 194.61L93.8411 189.151L98.9306 186.838L102.816 189.985Z" fill="#012C3D"/>
<path d="M115.251 200.054L114.047 205.513L108.957 207.826L105.072 204.679L106.275 199.22L111.365 196.908L115.251 200.054Z" fill="#012C3D"/>
<path d="M127.685 210.123L126.481 215.582L121.392 217.895L117.506 214.748L118.71 209.289L123.799 206.977L127.685 210.123Z" fill="#012C3D"/>
<path d="M140.119 220.192L138.916 225.651L133.826 227.964L129.94 224.817L131.144 219.358L136.234 217.046L140.119 220.192Z" fill="#012C3D"/>
<path d="M152.554 230.261L151.35 235.721L146.26 238.033L142.375 234.886L143.578 229.427L148.668 227.115L152.554 230.261Z" fill="#012C3D"/>
<path d="M3.81886 134.267L2.61512 139.726L-2.47434 142.038L-6.36007 138.892L-5.15634 133.433L-0.0668702 131.12L3.81886 134.267Z" fill="#012C3D"/>
<path d="M16.2532 144.336L15.0494 149.795L9.95998 152.107L6.07425 148.961L7.27799 143.502L12.3675 141.189L16.2532 144.336Z" fill="#012C3D"/>
<path d="M28.6875 154.405L27.4838 159.864L22.3943 162.177L18.5086 159.03L19.7123 153.571L24.8018 151.259L28.6875 154.405Z" fill="#012C3D"/>
<path d="M41.1219 164.474L39.9181 169.933L34.8287 172.246L30.9429 169.099L32.1467 163.64L37.2361 161.328L41.1219 164.474Z" fill="#012C3D"/>
<path d="M53.5562 174.543L52.3525 180.002L47.263 182.315L43.3773 179.168L44.581 173.709L49.6705 171.397L53.5562 174.543Z" fill="#012C3D"/>
<path d="M65.9905 184.613L64.7868 190.072L59.6973 192.384L55.8116 189.237L57.0153 183.778L62.1048 181.466L65.9905 184.613Z" fill="#012C3D"/>
<path d="M78.4249 194.682L77.2211 200.141L72.1317 202.453L68.2459 199.306L69.4497 193.847L74.5391 191.535L78.4249 194.682Z" fill="#012C3D"/>
<path d="M90.8592 204.751L89.6555 210.21L84.566 212.522L80.6803 209.376L81.884 203.917L86.9735 201.604L90.8592 204.751Z" fill="#012C3D"/>
<path d="M103.294 214.82L102.09 220.279L97.0003 222.591L93.1146 219.445L94.3183 213.986L99.4078 211.673L103.294 214.82Z" fill="#012C3D"/>
<path d="M115.728 224.889L114.524 230.348L109.435 232.66L105.549 229.514L106.753 224.055L111.842 221.742L115.728 224.889Z" fill="#012C3D"/>
<path d="M128.162 234.958L126.958 240.417L121.869 242.73L117.983 239.583L119.187 234.124L124.276 231.812L128.162 234.958Z" fill="#012C3D"/>
<path d="M140.597 245.027L139.393 250.486L134.303 252.799L130.418 249.652L131.621 244.193L136.711 241.881L140.597 245.027Z" fill="#012C3D"/>
<path d="M4.29609 159.102L3.09236 164.561L-1.99711 166.873L-5.88284 163.727L-4.6791 158.268L0.410364 155.955L4.29609 159.102Z" fill="#012C3D"/>
<path d="M16.7305 169.171L15.5267 174.63L10.4372 176.942L6.55152 173.796L7.75525 168.337L12.8447 166.024L16.7305 169.171Z" fill="#012C3D"/>
<path d="M29.1648 179.24L27.961 184.699L22.8716 187.011L18.9858 183.865L20.1896 178.406L25.279 176.093L29.1648 179.24Z" fill="#012C3D"/>
<path d="M41.5991 189.309L40.3954 194.768L35.3059 197.081L31.4202 193.934L32.6239 188.475L37.7134 186.163L41.5991 189.309Z" fill="#012C3D"/>
<path d="M54.0335 199.378L52.8297 204.837L47.7403 207.15L43.8545 204.003L45.0583 198.544L50.1477 196.232L54.0335 199.378Z" fill="#012C3D"/>
<path d="M66.4678 209.447L65.264 214.906L60.1746 217.219L56.2889 214.072L57.4926 208.613L62.5821 206.301L66.4678 209.447Z" fill="#012C3D"/>
<path d="M78.9021 219.517L77.6984 224.976L72.6089 227.288L68.7232 224.141L69.9269 218.682L75.0164 216.37L78.9021 219.517Z" fill="#012C3D"/>
<path d="M91.3365 229.586L90.1327 235.045L85.0433 237.357L81.1575 234.211L82.3613 228.751L87.4507 226.439L91.3365 229.586Z" fill="#012C3D"/>
<path d="M103.771 239.655L102.567 245.114L97.4776 247.426L93.5919 244.28L94.7956 238.821L99.8851 236.508L103.771 239.655Z" fill="#012C3D"/>
<path d="M116.205 249.724L115.001 255.183L109.912 257.495L106.026 254.349L107.23 248.89L112.319 246.577L116.205 249.724Z" fill="#012C3D"/>
<path d="M128.639 259.793L127.436 265.252L122.346 267.564L118.461 264.418L119.664 258.959L124.754 256.646L128.639 259.793Z" fill="#012C3D"/>
<path d="M4.77336 183.937L3.56962 189.396L-1.51985 191.708L-5.40558 188.562L-4.20184 183.103L0.887628 180.79L4.77336 183.937Z" fill="#012C3D"/>
<path d="M17.2077 194.006L16.0039 199.465L10.9145 201.777L7.02875 198.631L8.23249 193.172L13.322 190.859L17.2077 194.006Z" fill="#012C3D"/>
<path d="M29.642 204.075L28.4383 209.534L23.3488 211.846L19.4631 208.7L20.6668 203.241L25.7563 200.928L29.642 204.075Z" fill="#012C3D"/>
<path d="M42.0764 214.144L40.8726 219.603L35.7832 221.916L31.8974 218.769L33.1012 213.31L38.1906 210.997L42.0764 214.144Z" fill="#012C3D"/>
<path d="M54.5107 224.213L53.307 229.672L48.2175 231.985L44.3318 228.838L45.5355 223.379L50.625 221.067L54.5107 224.213Z" fill="#012C3D"/>
<path d="M66.945 234.282L65.7413 239.741L60.6518 242.054L56.7661 238.907L57.9698 233.448L63.0593 231.136L66.945 234.282Z" fill="#012C3D"/>
<path d="M79.3794 244.351L78.1756 249.81L73.0862 252.123L69.2004 248.976L70.4042 243.517L75.4936 241.205L79.3794 244.351Z" fill="#012C3D"/>
<path d="M91.8137 254.421L90.61 259.88L85.5205 262.192L81.6348 259.045L82.8385 253.586L87.928 251.274L91.8137 254.421Z" fill="#012C3D"/>
<path d="M104.248 264.49L103.044 269.949L97.9548 272.261L94.0691 269.115L95.2728 263.656L100.362 261.343L104.248 264.49Z" fill="#012C3D"/>
<path d="M116.682 274.559L115.479 280.018L110.389 282.33L106.503 279.184L107.707 273.725L112.797 271.412L116.682 274.559Z" fill="#012C3D"/>
<path d="M5.25059 208.772L4.04685 214.231L-1.04261 216.543L-4.92834 213.396L-3.7246 207.937L1.36486 205.625L5.25059 208.772Z" fill="#012C3D"/>
<path d="M17.6849 218.841L16.4812 224.3L11.3917 226.612L7.50601 223.466L8.70975 218.007L13.7992 215.694L17.6849 218.841Z" fill="#012C3D"/>
<path d="M30.1193 228.91L28.9155 234.369L23.8261 236.681L19.9403 233.535L21.1441 228.076L26.2335 225.763L30.1193 228.91Z" fill="#012C3D"/>
<path d="M42.5536 238.979L41.3499 244.438L36.2604 246.75L32.3747 243.604L33.5784 238.145L38.6679 235.832L42.5536 238.979Z" fill="#012C3D"/>
<path d="M54.988 249.048L53.7842 254.507L48.6948 256.82L44.809 253.673L46.0128 248.214L51.1022 245.901L54.988 249.048Z" fill="#012C3D"/>
<path d="M67.4223 259.117L66.2185 264.576L61.1291 266.889L57.2434 263.742L58.4471 258.283L63.5366 255.971L67.4223 259.117Z" fill="#012C3D"/>
<path d="M79.8566 269.186L78.6529 274.645L73.5634 276.958L69.6777 273.811L70.8814 268.352L75.9709 266.04L79.8566 269.186Z" fill="#012C3D"/>
<path d="M92.2909 279.255L91.0872 284.714L85.9977 287.027L82.112 283.88L83.3157 278.421L88.4052 276.109L92.2909 279.255Z" fill="#012C3D"/>
<path d="M104.725 289.325L103.522 294.784L98.4321 297.096L94.5464 293.949L95.7501 288.49L100.84 286.178L104.725 289.325Z" fill="#012C3D"/>
<path d="M5.72786 233.606L4.52412 239.066L-0.565347 241.378L-4.45108 238.231L-3.24734 232.772L1.84213 230.46L5.72786 233.606Z" fill="#012C3D"/>
<path d="M18.1622 243.676L16.9584 249.135L11.869 251.447L7.98325 248.3L9.18699 242.841L14.2765 240.529L18.1622 243.676Z" fill="#012C3D"/>
<path d="M30.5965 253.745L29.3928 259.204L24.3033 261.516L20.4176 258.37L21.6213 252.911L26.7108 250.598L30.5965 253.745Z" fill="#012C3D"/>
<path d="M43.0309 263.814L41.8271 269.273L36.7377 271.585L32.8519 268.439L34.0557 262.98L39.1451 260.667L43.0309 263.814Z" fill="#012C3D"/>
<path d="M55.4652 273.883L54.2615 279.342L49.172 281.654L45.2863 278.508L46.49 273.049L51.5795 270.736L55.4652 273.883Z" fill="#012C3D"/>
<path d="M67.8995 283.952L66.6958 289.411L61.6063 291.724L57.7206 288.577L58.9243 283.118L64.0138 280.806L67.8995 283.952Z" fill="#012C3D"/>
<path d="M80.3339 294.021L79.1301 299.48L74.0407 301.793L70.1549 298.646L71.3587 293.187L76.4481 290.875L80.3339 294.021Z" fill="#012C3D"/>
<path d="M92.7682 304.09L91.5645 309.549L86.475 311.862L82.5893 308.715L83.793 303.256L88.8825 300.944L92.7682 304.09Z" fill="#012C3D"/>
<path d="M6.20509 258.441L5.00135 263.9L-0.0881136 266.213L-3.97384 263.066L-2.77011 257.607L2.31936 255.295L6.20509 258.441Z" fill="#012C3D"/>
<path d="M18.6394 268.511L17.4357 273.97L12.3462 276.282L8.46051 273.135L9.66425 267.676L14.7537 265.364L18.6394 268.511Z" fill="#012C3D"/>
<path d="M31.0738 278.58L29.87 284.039L24.7806 286.351L20.8948 283.204L22.0986 277.745L27.188 275.433L31.0738 278.58Z" fill="#012C3D"/>
<path d="M43.5081 288.649L42.3044 294.108L37.2149 296.42L33.3292 293.274L34.5329 287.815L39.6224 285.502L43.5081 288.649Z" fill="#012C3D"/>
<path d="M55.9424 298.718L54.7387 304.177L49.6492 306.489L45.7635 303.343L46.9672 297.884L52.0567 295.571L55.9424 298.718Z" fill="#012C3D"/>
<path d="M68.3768 308.787L67.173 314.246L62.0836 316.558L58.1978 313.412L59.4016 307.953L64.4911 305.64L68.3768 308.787Z" fill="#012C3D"/>
<path d="M80.8111 318.856L79.6074 324.315L74.5179 326.628L70.6322 323.481L71.8359 318.022L76.9254 315.71L80.8111 318.856Z" fill="#012C3D"/>
<path d="M6.68235 283.276L5.47862 288.735L0.389151 291.048L-3.49658 287.901L-2.29284 282.442L2.79662 280.13L6.68235 283.276Z" fill="#012C3D"/>
<path d="M19.1167 293.345L17.9129 298.804L12.8235 301.117L8.93775 297.97L10.1415 292.511L15.231 290.199L19.1167 293.345Z" fill="#012C3D"/>
<path d="M31.551 303.415L30.3473 308.874L25.2578 311.186L21.3721 308.039L22.5758 302.58L27.6653 300.268L31.551 303.415Z" fill="#012C3D"/>
<path d="M43.9854 313.484L42.7816 318.943L37.6922 321.255L33.8064 318.109L35.0102 312.649L40.0996 310.337L43.9854 313.484Z" fill="#012C3D"/>
<path d="M56.4197 323.553L55.216 329.012L50.1265 331.324L46.2408 328.178L47.4445 322.719L52.534 320.406L56.4197 323.553Z" fill="#012C3D"/>
<path d="M68.854 333.622L67.6503 339.081L62.5608 341.393L58.6751 338.247L59.8788 332.788L64.9683 330.475L68.854 333.622Z" fill="#012C3D"/>
<path d="M7.15959 308.111L5.95585 313.57L0.866385 315.883L-3.01935 312.736L-1.81561 307.277L3.27386 304.965L7.15959 308.111Z" fill="#012C3D"/>
<path d="M19.5939 318.18L18.3902 323.639L13.3007 325.952L9.41498 322.805L10.6187 317.346L15.7082 315.034L19.5939 318.18Z" fill="#012C3D"/>
<path d="M32.0283 328.249L30.8245 333.708L25.7351 336.021L21.8493 332.874L23.0531 327.415L28.1425 325.103L32.0283 328.249Z" fill="#012C3D"/>
<path d="M44.4626 338.319L43.2589 343.778L38.1694 346.09L34.2837 342.943L35.4874 337.484L40.5769 335.172L44.4626 338.319Z" fill="#012C3D"/>
<path d="M56.8969 348.388L55.6932 353.847L50.6037 356.159L46.718 353.013L47.9217 347.554L53.0112 345.241L56.8969 348.388Z" fill="#012C3D"/>
<path d="M7.63685 332.946L6.43312 338.405L1.34365 340.718L-2.54208 337.571L-1.33834 332.112L3.75112 329.799L7.63685 332.946Z" fill="#012C3D"/>
<path d="M20.0712 343.015L18.8674 348.474L13.778 350.787L9.89225 347.64L11.096 342.181L16.1854 339.869L20.0712 343.015Z" fill="#012C3D"/>
<path d="M32.5055 353.084L31.3018 358.543L26.2123 360.856L22.3266 357.709L23.5303 352.25L28.6198 349.938L32.5055 353.084Z" fill="#012C3D"/>
<path d="M44.9399 363.153L43.7361 368.612L38.6467 370.925L34.7609 367.778L35.9647 362.319L41.0541 360.007L44.9399 363.153Z" fill="#012C3D"/>
</svg>
