<svg width="161" height="373" viewBox="0 0 161 373" fill="none" xmlns="http://www.w3.org/2000/svg">
<path d="M155.607 4.7199L154.403 10.1789L149.314 12.4914L145.428 9.34476L146.632 3.88573L151.721 1.5733L155.607 4.7199Z" fill="#FC6341"/>
<path d="M168.041 14.789L166.837 20.2481L161.748 22.5605L157.862 19.4139L159.066 13.9549L164.155 11.6424L168.041 14.789Z" fill="#FC6341"/>
<path d="M143.65 19.4857L142.446 24.9447L137.356 27.2571L133.471 24.1105L134.675 18.6515L139.764 16.3391L143.65 19.4857Z" fill="#FC6341"/>
<path d="M156.084 29.5548L154.88 35.0138L149.791 37.3263L145.905 34.1797L147.109 28.7206L152.198 26.4082L156.084 29.5548Z" fill="#FC6341"/>
<path d="M168.518 39.6239L167.315 45.083L162.225 47.3954L158.339 44.2488L159.543 38.7898L164.633 36.4773L168.518 39.6239Z" fill="#FC6341"/>
<path d="M131.693 34.2515L130.489 39.7105L125.399 42.0229L121.514 38.8763L122.717 33.4173L127.807 31.1048L131.693 34.2515Z" fill="#FC6341"/>
<path d="M144.127 44.3206L142.923 49.7796L137.834 52.092L133.948 48.9454L135.152 43.4864L140.241 41.174L144.127 44.3206Z" fill="#FC6341"/>
<path d="M156.561 54.3897L155.358 59.8487L150.268 62.1612L146.382 59.0146L147.586 53.5555L152.676 51.2431L156.561 54.3897Z" fill="#FC6341"/>
<path d="M168.996 64.4588L167.792 69.9179L162.702 72.2303L158.817 69.0837L160.02 63.6247L165.11 61.3122L168.996 64.4588Z" fill="#FC6341"/>
<path d="M119.736 49.0172L118.532 54.4763L113.442 56.7887L109.557 53.6421L110.76 48.183L115.85 45.8706L119.736 49.0172Z" fill="#FC6341"/>
<path d="M132.17 59.0864L130.966 64.5454L125.877 66.8578L121.991 63.7112L123.195 58.2522L128.284 55.9397L132.17 59.0864Z" fill="#FC6341"/>
<path d="M144.604 69.1555L143.4 74.6145L138.311 76.9269L134.425 73.7803L135.629 68.3213L140.718 66.0089L144.604 69.1555Z" fill="#FC6341"/>
<path d="M157.039 79.2246L155.835 84.6836L150.745 86.9961L146.86 83.8495L148.063 78.3904L153.153 76.078L157.039 79.2246Z" fill="#FC6341"/>
<path d="M169.473 89.2937L168.269 94.7528L163.18 97.0652L159.294 93.9186L160.498 88.4596L165.587 86.1471L169.473 89.2937Z" fill="#FC6341"/>
<path d="M107.778 63.783L106.575 69.242L101.485 71.5545L97.5995 68.4079L98.8032 62.9488L103.893 60.6364L107.778 63.783Z" fill="#FC6341"/>
<path d="M120.213 73.8521L119.009 79.3112L113.92 81.6236L110.034 78.477L111.238 73.018L116.327 70.7055L120.213 73.8521Z" fill="#FC6341"/>
<path d="M132.647 83.9213L131.443 89.3803L126.354 91.6927L122.468 88.5461L123.672 83.0871L128.761 80.7746L132.647 83.9213Z" fill="#FC6341"/>
<path d="M145.081 93.9904L143.878 99.4494L138.788 101.762L134.903 98.6152L136.106 93.1562L141.196 90.8438L145.081 93.9904Z" fill="#FC6341"/>
<path d="M157.516 104.06L156.312 109.519L151.223 111.831L147.337 108.684L148.541 103.225L153.63 100.913L157.516 104.06Z" fill="#FC6341"/>
<path d="M169.95 114.129L168.746 119.588L163.657 121.9L159.771 118.753L160.975 113.294L166.064 110.982L169.95 114.129Z" fill="#FC6341"/>
<path d="M95.8213 78.5488L94.6176 84.0078L89.5281 86.3202L85.6424 83.1736L86.8461 77.7146L91.9356 75.4022L95.8213 78.5488Z" fill="#FC6341"/>
<path d="M108.256 88.6179L107.052 94.0769L101.963 96.3894L98.0768 93.2428L99.2805 87.7837L104.37 85.4713L108.256 88.6179Z" fill="#FC6341"/>
<path d="M120.69 98.687L119.486 104.146L114.397 106.458L110.511 103.312L111.715 97.8529L116.804 95.5404L120.69 98.687Z" fill="#FC6341"/>
<path d="M133.124 108.756L131.921 114.215L126.831 116.528L122.945 113.381L124.149 107.922L129.239 105.61L133.124 108.756Z" fill="#FC6341"/>
<path d="M145.559 118.825L144.355 124.284L139.265 126.597L135.38 123.45L136.584 117.991L141.673 115.679L145.559 118.825Z" fill="#FC6341"/>
<path d="M157.993 128.894L156.789 134.353L151.7 136.666L147.814 133.519L149.018 128.06L154.107 125.748L157.993 128.894Z" fill="#FC6341"/>
<path d="M170.427 138.964L169.224 144.423L164.134 146.735L160.248 143.588L161.452 138.129L166.542 135.817L170.427 138.964Z" fill="#FC6341"/>
<path d="M83.8642 93.3145L82.6605 98.7736L77.571 101.086L73.6853 97.9394L74.889 92.4804L79.9785 90.1679L83.8642 93.3145Z" fill="#FC6341"/>
<path d="M96.2986 103.384L95.0949 108.843L90.0054 111.155L86.1197 108.009L87.3234 102.549L92.4129 100.237L96.2986 103.384Z" fill="#FC6341"/>
<path d="M108.733 113.453L107.529 118.912L102.44 121.224L98.554 118.078L99.7578 112.619L104.847 110.306L108.733 113.453Z" fill="#FC6341"/>
<path d="M121.167 123.522L119.964 128.981L114.874 131.293L110.988 128.147L112.192 122.688L117.282 120.375L121.167 123.522Z" fill="#FC6341"/>
<path d="M133.602 133.591L132.398 139.05L127.308 141.363L123.423 138.216L124.626 132.757L129.716 130.444L133.602 133.591Z" fill="#FC6341"/>
<path d="M146.036 143.66L144.832 149.119L139.743 151.432L135.857 148.285L137.061 142.826L142.15 140.514L146.036 143.66Z" fill="#FC6341"/>
<path d="M158.47 153.729L157.267 159.188L152.177 161.501L148.291 158.354L149.495 152.895L154.585 150.583L158.47 153.729Z" fill="#FC6341"/>
<path d="M170.905 163.798L169.701 169.257L164.611 171.57L160.726 168.423L161.929 162.964L167.019 160.652L170.905 163.798Z" fill="#FC6341"/>
<path d="M71.9072 108.08L70.7035 113.539L65.614 115.852L61.7283 112.705L62.932 107.246L68.0215 104.934L71.9072 108.08Z" fill="#FC6341"/>
<path d="M84.3415 118.149L83.1378 123.608L78.0483 125.921L74.1626 122.774L75.3663 117.315L80.4558 115.003L84.3415 118.149Z" fill="#FC6341"/>
<path d="M96.7759 128.219L95.5721 133.678L90.4827 135.99L86.5969 132.843L87.8007 127.384L92.8901 125.072L96.7759 128.219Z" fill="#FC6341"/>
<path d="M109.21 138.288L108.006 143.747L102.917 146.059L99.0313 142.913L100.235 137.454L105.324 135.141L109.21 138.288Z" fill="#FC6341"/>
<path d="M121.645 148.357L120.441 153.816L115.351 156.128L111.466 152.982L112.669 147.523L117.759 145.21L121.645 148.357Z" fill="#FC6341"/>
<path d="M134.079 158.426L132.875 163.885L127.786 166.197L123.9 163.051L125.104 157.592L130.193 155.279L134.079 158.426Z" fill="#FC6341"/>
<path d="M146.513 168.495L145.309 173.954L140.22 176.267L136.334 173.12L137.538 167.661L142.627 165.348L146.513 168.495Z" fill="#FC6341"/>
<path d="M158.947 178.564L157.744 184.023L152.654 186.336L148.769 183.189L149.972 177.73L155.062 175.418L158.947 178.564Z" fill="#FC6341"/>
<path d="M171.382 188.633L170.178 194.092L165.089 196.405L161.203 193.258L162.407 187.799L167.496 185.487L171.382 188.633Z" fill="#FC6341"/>
<path d="M59.9501 122.846L58.7464 128.305L53.6569 130.618L49.7712 127.471L50.9749 122.012L56.0644 119.699L59.9501 122.846Z" fill="#FC6341"/>
<path d="M72.3844 132.915L71.1807 138.374L66.0912 140.687L62.2055 137.54L63.4092 132.081L68.4987 129.769L72.3844 132.915Z" fill="#FC6341"/>
<path d="M84.8188 142.984L83.615 148.443L78.5256 150.756L74.6398 147.609L75.8436 142.15L80.933 139.838L84.8188 142.984Z" fill="#FC6341"/>
<path d="M97.2531 153.053L96.0494 158.513L90.9599 160.825L87.0742 157.678L88.2779 152.219L93.3674 149.907L97.2531 153.053Z" fill="#FC6341"/>
<path d="M109.687 163.123L108.484 168.582L103.394 170.894L99.5085 167.747L100.712 162.288L105.802 159.976L109.687 163.123Z" fill="#FC6341"/>
<path d="M122.122 173.192L120.918 178.651L115.829 180.963L111.943 177.817L113.147 172.358L118.236 170.045L122.122 173.192Z" fill="#FC6341"/>
<path d="M134.556 183.261L133.352 188.72L128.263 191.032L124.377 187.886L125.581 182.427L130.67 180.114L134.556 183.261Z" fill="#FC6341"/>
<path d="M146.99 193.33L145.787 198.789L140.697 201.101L136.812 197.955L138.015 192.496L143.105 190.183L146.99 193.33Z" fill="#FC6341"/>
<path d="M159.425 203.399L158.221 208.858L153.132 211.171L149.246 208.024L150.45 202.565L155.539 200.253L159.425 203.399Z" fill="#FC6341"/>
<path d="M171.859 213.468L170.655 218.927L165.566 221.24L161.68 218.093L162.884 212.634L167.973 210.322L171.859 213.468Z" fill="#FC6341"/>
<path d="M47.993 137.612L46.7893 143.071L41.6998 145.383L37.8141 142.237L39.0178 136.778L44.1073 134.465L47.993 137.612Z" fill="#FC6341"/>
<path d="M60.4273 147.681L59.2236 153.14L54.1341 155.452L50.2484 152.306L51.4522 146.847L56.5416 144.534L60.4273 147.681Z" fill="#FC6341"/>
<path d="M72.8617 157.75L71.6579 163.209L66.5685 165.522L62.6827 162.375L63.8865 156.916L68.9759 154.604L72.8617 157.75Z" fill="#FC6341"/>
<path d="M85.296 167.819L84.0923 173.278L79.0028 175.591L75.1171 172.444L76.3208 166.985L81.4103 164.673L85.296 167.819Z" fill="#FC6341"/>
<path d="M97.7303 177.888L96.5266 183.347L91.4371 185.66L87.5514 182.513L88.7551 177.054L93.8446 174.742L97.7303 177.888Z" fill="#FC6341"/>
<path d="M110.165 187.957L108.961 193.417L103.872 195.729L99.9858 192.582L101.19 187.123L106.279 184.811L110.165 187.957Z" fill="#FC6341"/>
<path d="M122.599 198.027L121.395 203.486L116.306 205.798L112.42 202.651L113.624 197.192L118.713 194.88L122.599 198.027Z" fill="#FC6341"/>
<path d="M135.033 208.096L133.83 213.555L128.74 215.867L124.854 212.721L126.058 207.262L131.148 204.949L135.033 208.096Z" fill="#FC6341"/>
<path d="M147.468 218.165L146.264 223.624L141.174 225.936L137.289 222.79L138.492 217.331L143.582 215.018L147.468 218.165Z" fill="#FC6341"/>
<path d="M159.902 228.234L158.698 233.693L153.609 236.005L149.723 232.859L150.927 227.4L156.016 225.087L159.902 228.234Z" fill="#FC6341"/>
<path d="M172.336 238.303L171.133 243.762L166.043 246.075L162.157 242.928L163.361 237.469L168.451 235.157L172.336 238.303Z" fill="#FC6341"/>
<path d="M36.0359 152.378L34.8322 157.837L29.7427 160.149L25.857 157.002L27.0607 151.543L32.1502 149.231L36.0359 152.378Z" fill="#FC6341"/>
<path d="M48.4703 162.447L47.2665 167.906L42.1771 170.218L38.2913 167.072L39.4951 161.613L44.5845 159.3L48.4703 162.447Z" fill="#FC6341"/>
<path d="M60.9046 172.516L59.7008 177.975L54.6114 180.287L50.7256 177.141L51.9294 171.682L57.0189 169.369L60.9046 172.516Z" fill="#FC6341"/>
<path d="M73.3389 182.585L72.1352 188.044L67.0457 190.356L63.16 187.21L64.3637 181.751L69.4532 179.438L73.3389 182.585Z" fill="#FC6341"/>
<path d="M85.7732 192.654L84.5695 198.113L79.48 200.426L75.5943 197.279L76.798 191.82L81.8875 189.508L85.7732 192.654Z" fill="#FC6341"/>
<path d="M98.2076 202.723L97.0039 208.182L91.9144 210.495L88.0287 207.348L89.2324 201.889L94.3219 199.577L98.2076 202.723Z" fill="#FC6341"/>
<path d="M110.642 212.792L109.438 218.251L104.349 220.564L100.463 217.417L101.667 211.958L106.756 209.646L110.642 212.792Z" fill="#FC6341"/>
<path d="M123.076 222.862L121.873 228.321L116.783 230.633L112.897 227.486L114.101 222.027L119.191 219.715L123.076 222.862Z" fill="#FC6341"/>
<path d="M135.511 232.931L134.307 238.39L129.217 240.702L125.332 237.556L126.535 232.096L131.625 229.784L135.511 232.931Z" fill="#FC6341"/>
<path d="M147.945 243L146.741 248.459L141.652 250.771L137.766 247.625L138.97 242.166L144.059 239.853L147.945 243Z" fill="#FC6341"/>
<path d="M160.379 253.069L159.176 258.528L154.086 260.84L150.2 257.694L151.404 252.235L156.494 249.922L160.379 253.069Z" fill="#FC6341"/>
<path d="M172.814 263.138L171.61 268.597L166.52 270.909L162.635 267.763L163.838 262.304L168.928 259.991L172.814 263.138Z" fill="#FC6341"/>
<path d="M24.0788 167.143L22.8751 172.602L17.7856 174.915L13.8999 171.768L15.1036 166.309L20.1931 163.997L24.0788 167.143Z" fill="#FC6341"/>
<path d="M36.5132 177.213L35.3094 182.672L30.22 184.984L26.3342 181.837L27.538 176.378L32.6274 174.066L36.5132 177.213Z" fill="#FC6341"/>
<path d="M48.9475 187.282L47.7438 192.741L42.6543 195.053L38.7686 191.907L39.9723 186.447L45.0618 184.135L48.9475 187.282Z" fill="#FC6341"/>
<path d="M61.3818 197.351L60.1781 202.81L55.0886 205.122L51.2029 201.976L52.4066 196.517L57.4961 194.204L61.3818 197.351Z" fill="#FC6341"/>
<path d="M73.8162 207.42L72.6125 212.879L67.523 215.191L63.6373 212.045L64.841 206.586L69.9305 204.273L73.8162 207.42Z" fill="#FC6341"/>
<path d="M86.2505 217.489L85.0468 222.948L79.9573 225.261L76.0716 222.114L77.2753 216.655L82.3648 214.342L86.2505 217.489Z" fill="#FC6341"/>
<path d="M98.6849 227.558L97.4811 233.017L92.3917 235.33L88.5059 232.183L89.7097 226.724L94.7991 224.412L98.6849 227.558Z" fill="#FC6341"/>
<path d="M111.119 237.627L109.915 243.086L104.826 245.399L100.94 242.252L102.144 236.793L107.233 234.481L111.119 237.627Z" fill="#FC6341"/>
<path d="M123.554 247.696L122.35 253.155L117.26 255.468L113.375 252.321L114.578 246.862L119.668 244.55L123.554 247.696Z" fill="#FC6341"/>
<path d="M135.988 257.766L134.784 263.225L129.695 265.537L125.809 262.39L127.013 256.931L132.102 254.619L135.988 257.766Z" fill="#FC6341"/>
<path d="M148.422 267.835L147.218 273.294L142.129 275.606L138.243 272.46L139.447 267.001L144.536 264.688L148.422 267.835Z" fill="#FC6341"/>
<path d="M160.857 277.904L159.653 283.363L154.563 285.675L150.678 282.529L151.881 277.07L156.971 274.757L160.857 277.904Z" fill="#FC6341"/>
<path d="M12.1217 181.909L10.918 187.368L5.82854 189.681L1.94281 186.534L3.14655 181.075L8.23602 178.763L12.1217 181.909Z" fill="#FC6341"/>
<path d="M24.5561 191.978L23.3523 197.437L18.2629 199.75L14.3771 196.603L15.5809 191.144L20.6703 188.832L24.5561 191.978Z" fill="#FC6341"/>
<path d="M36.9904 202.047L35.7867 207.506L30.6972 209.819L26.8115 206.672L28.0152 201.213L33.1047 198.901L36.9904 202.047Z" fill="#FC6341"/>
<path d="M49.4247 212.117L48.221 217.576L43.1315 219.888L39.2458 216.741L40.4495 211.282L45.539 208.97L49.4247 212.117Z" fill="#FC6341"/>
<path d="M61.8591 222.186L60.6554 227.645L55.5659 229.957L51.6802 226.811L52.8839 221.352L57.9734 219.039L61.8591 222.186Z" fill="#FC6341"/>
<path d="M74.2934 232.255L73.0897 237.714L68.0002 240.026L64.1145 236.88L65.3182 231.421L70.4077 229.108L74.2934 232.255Z" fill="#FC6341"/>
<path d="M86.7278 242.324L85.524 247.783L80.4346 250.095L76.5488 246.949L77.7526 241.49L82.842 239.177L86.7278 242.324Z" fill="#FC6341"/>
<path d="M99.1621 252.393L97.9584 257.852L92.8689 260.165L88.9832 257.018L90.1869 251.559L95.2764 249.246L99.1621 252.393Z" fill="#FC6341"/>
<path d="M111.596 262.462L110.393 267.921L105.303 270.234L101.417 267.087L102.621 261.628L107.711 259.316L111.596 262.462Z" fill="#FC6341"/>
<path d="M124.031 272.531L122.827 277.99L117.738 280.303L113.852 277.156L115.056 271.697L120.145 269.385L124.031 272.531Z" fill="#FC6341"/>
<path d="M136.465 282.6L135.261 288.059L130.172 290.372L126.286 287.225L127.49 281.766L132.579 279.454L136.465 282.6Z" fill="#FC6341"/>
<path d="M148.899 292.67L147.696 298.129L142.606 300.441L138.72 297.294L139.924 291.835L145.014 289.523L148.899 292.67Z" fill="#FC6341"/>
<path d="M161.334 302.739L160.13 308.198L155.041 310.51L151.155 307.364L152.359 301.905L157.448 299.592L161.334 302.739Z" fill="#FC6341"/>
</svg>
