<svg width="875" height="596" viewBox="0 0 875 596" fill="none" xmlns="http://www.w3.org/2000/svg">
<g clip-path="url(#clip0)">
<g opacity="0.5">
<path opacity="0.5" d="M81.434 394.106H79.307V406.157H81.434V394.106Z" fill="#47E6B1"/>
<path opacity="0.5" d="M86.396 401.195V399.068H74.345V401.195H86.396Z" fill="#47E6B1"/>
</g>
<g opacity="0.5">
<path opacity="0.5" d="M51.213 540.05H49.086V552.101H51.213V540.05Z" fill="#47E6B1"/>
<path opacity="0.5" d="M56.175 547.139V545.012H44.124V547.139H56.175Z" fill="#47E6B1"/>
</g>
<g opacity="0.5">
<path opacity="0.5" d="M692.815 295.401H690.688V307.452H692.815V295.401Z" fill="#47E6B1"/>
<path opacity="0.5" d="M697.777 302.49V300.363H685.726V302.49H697.777Z" fill="#47E6B1"/>
</g>
<g opacity="0.5">
<path opacity="0.5" d="M64.696 325.373H62.569V337.424H64.696V325.373Z" fill="#47E6B1"/>
<path opacity="0.5" d="M69.651 332.462V330.335H57.6V332.462H69.651Z" fill="#47E6B1"/>
</g>
<path opacity="0.5" d="M821.309 488.774C820.723 488.518 820.252 488.056 819.984 487.476C819.717 486.895 819.672 486.236 819.859 485.625C819.889 485.532 819.908 485.436 819.916 485.338C819.959 485.048 819.902 484.752 819.753 484.499C819.604 484.247 819.372 484.053 819.097 483.951C818.822 483.849 818.52 483.845 818.243 483.939C817.965 484.034 817.728 484.221 817.572 484.469C817.513 484.548 817.464 484.634 817.425 484.725C817.171 485.311 816.71 485.782 816.131 486.051C815.552 486.319 814.894 486.365 814.283 486.181C814.19 486.151 814.093 486.132 813.995 486.124C813.705 486.081 813.409 486.139 813.157 486.288C812.904 486.437 812.711 486.669 812.609 486.944C812.508 487.219 812.504 487.52 812.598 487.798C812.692 488.075 812.879 488.312 813.127 488.468C813.206 488.527 813.292 488.576 813.382 488.615C813.968 488.871 814.439 489.333 814.706 489.913C814.974 490.493 815.018 491.152 814.832 491.763C814.802 491.856 814.782 491.952 814.774 492.05C814.731 492.34 814.789 492.636 814.938 492.888C815.087 493.141 815.319 493.334 815.594 493.436C815.869 493.537 816.17 493.541 816.448 493.447C816.725 493.353 816.962 493.166 817.118 492.918C817.177 492.839 817.226 492.753 817.265 492.663C817.521 492.077 817.982 491.606 818.563 491.339C819.143 491.071 819.802 491.026 820.413 491.213C820.506 491.243 820.602 491.262 820.7 491.27C820.99 491.313 821.286 491.256 821.539 491.107C821.791 490.958 821.985 490.726 822.087 490.451C822.189 490.176 822.193 489.874 822.099 489.597C822.004 489.319 821.817 489.082 821.569 488.926C821.489 488.865 821.401 488.814 821.309 488.774Z" fill="#4D8AF0"/>
<path opacity="0.5" d="M816.838 338.327C816.252 338.071 815.781 337.609 815.514 337.029C815.246 336.449 815.202 335.79 815.388 335.179C815.418 335.086 815.437 334.99 815.445 334.892C815.488 334.602 815.43 334.306 815.281 334.054C815.132 333.801 814.9 333.608 814.625 333.506C814.35 333.405 814.049 333.4 813.771 333.495C813.494 333.589 813.257 333.776 813.101 334.024C813.042 334.103 812.993 334.189 812.954 334.279C812.698 334.864 812.236 335.334 811.656 335.601C811.076 335.868 810.419 335.913 809.808 335.727C809.715 335.697 809.618 335.678 809.521 335.67C809.231 335.626 808.935 335.684 808.682 335.833C808.43 335.982 808.236 336.214 808.134 336.489C808.032 336.764 808.028 337.066 808.122 337.343C808.217 337.621 808.404 337.858 808.652 338.014C808.731 338.073 808.817 338.122 808.908 338.161C809.494 338.417 809.965 338.879 810.233 339.459C810.5 340.04 810.545 340.699 810.358 341.31C810.328 341.403 810.308 341.499 810.3 341.597C810.256 341.887 810.314 342.183 810.463 342.436C810.612 342.688 810.844 342.882 811.119 342.984C811.394 343.086 811.696 343.09 811.973 342.996C812.251 342.901 812.488 342.714 812.644 342.466C812.703 342.387 812.752 342.301 812.791 342.211C813.046 341.625 813.508 341.154 814.089 340.887C814.669 340.619 815.328 340.574 815.939 340.761C816.032 340.791 816.129 340.81 816.227 340.818C816.517 340.861 816.813 340.804 817.066 340.655C817.318 340.506 817.512 340.274 817.614 339.999C817.716 339.724 817.72 339.422 817.626 339.145C817.531 338.867 817.344 338.63 817.096 338.474C817.016 338.415 816.929 338.366 816.838 338.327Z" fill="#4D8AF0"/>
<path opacity="0.5" d="M4.253 495.031C6.60187 495.031 8.506 493.127 8.506 490.778C8.506 488.429 6.60187 486.525 4.253 486.525C1.90413 486.525 0 488.429 0 490.778C0 493.127 1.90413 495.031 4.253 495.031Z" fill="#F55F44"/>
<path opacity="0.5" d="M817.623 410.025C819.972 410.025 821.876 408.121 821.876 405.772C821.876 403.423 819.972 401.519 817.623 401.519C815.274 401.519 813.37 403.423 813.37 405.772C813.37 408.121 815.274 410.025 817.623 410.025Z" fill="#F55F44"/>
<path opacity="0.5" d="M870.452 562.432C872.801 562.432 874.705 560.528 874.705 558.179C874.705 555.83 872.801 553.926 870.452 553.926C868.103 553.926 866.199 555.83 866.199 558.179C866.199 560.528 868.103 562.432 870.452 562.432Z" fill="#F55F44"/>
<path opacity="0.5" d="M305.691 330.38C308.336 330.38 310.481 328.235 310.481 325.59C310.481 322.945 308.336 320.8 305.691 320.8C303.046 320.8 300.901 322.945 300.901 325.59C300.901 328.235 303.046 330.38 305.691 330.38Z" fill="#47E6B1"/>
<path opacity="0.1" d="M267.177 401.701C267.177 401.701 237.588 417.763 233.361 449.887L267.177 401.701Z" fill="white"/>
<path opacity="0.1" d="M420.829 321.419C420.829 321.419 391.243 337.481 387.013 369.605L420.829 321.419Z" fill="white"/>
<path d="M102.857 163.094C107.711 153.31 110.457 144.789 108.989 144.061C107.522 143.333 102.397 150.674 97.5427 160.458C92.6883 170.242 89.9425 178.763 91.4099 179.491C92.8773 180.219 98.0022 172.878 102.857 163.094Z" fill="#E0E0E0"/>
<path d="M511.146 285.396C516 275.612 519.127 267.279 518.129 266.784C517.132 266.29 512.388 273.82 507.534 283.604C502.679 293.388 499.553 301.72 500.55 302.215C501.547 302.71 506.291 295.18 511.146 285.396Z" fill="#E0E0E0"/>
<path d="M337.571 319.425C338.482 319.425 339.22 318.687 339.22 317.776C339.22 316.865 338.482 316.127 337.571 316.127C336.66 316.127 335.922 316.865 335.922 317.776C335.922 318.687 336.66 319.425 337.571 319.425Z" fill="#DBDBDB"/>
<g opacity="0.5">
<path opacity="0.5" d="M101.687 271.61H99.996V281.19H101.687V271.61Z" fill="#47E6B1"/>
<path opacity="0.5" d="M105.631 277.245V275.554H96.051V277.245H105.631Z" fill="#47E6B1"/>
</g>
<path opacity="0.5" d="M446.024 319.763C445.559 319.56 445.184 319.194 444.971 318.733C444.758 318.272 444.722 317.749 444.87 317.263C444.894 317.188 444.909 317.111 444.915 317.033C444.929 316.81 444.87 316.589 444.748 316.402C444.626 316.216 444.447 316.073 444.238 315.996C444.029 315.919 443.8 315.911 443.586 315.974C443.372 316.037 443.184 316.167 443.05 316.345C443.004 316.407 442.966 316.474 442.935 316.545C442.732 317.01 442.366 317.385 441.905 317.598C441.444 317.811 440.921 317.847 440.435 317.699C440.36 317.675 440.283 317.66 440.205 317.654C439.982 317.64 439.761 317.699 439.575 317.821C439.388 317.943 439.245 318.121 439.168 318.331C439.091 318.54 439.083 318.769 439.146 318.983C439.209 319.197 439.339 319.385 439.517 319.519C439.579 319.565 439.646 319.604 439.717 319.634C440.182 319.837 440.557 320.204 440.77 320.664C440.982 321.125 441.018 321.648 440.871 322.134C440.847 322.209 440.832 322.286 440.826 322.364C440.812 322.587 440.871 322.808 440.993 322.995C441.115 323.181 441.294 323.324 441.503 323.401C441.712 323.478 441.941 323.486 442.155 323.423C442.369 323.36 442.557 323.23 442.691 323.052C442.737 322.99 442.776 322.923 442.806 322.852C443.009 322.387 443.375 322.012 443.836 321.799C444.297 321.586 444.82 321.55 445.306 321.698C445.381 321.722 445.458 321.737 445.536 321.743C445.759 321.757 445.98 321.698 446.167 321.576C446.353 321.454 446.496 321.275 446.573 321.066C446.65 320.857 446.658 320.628 446.595 320.414C446.532 320.2 446.402 320.012 446.224 319.878C446.162 319.832 446.095 319.794 446.024 319.763Z" fill="#4D8AF0"/>
<path opacity="0.5" d="M206.627 308.237C208.494 308.237 210.008 306.723 210.008 304.856C210.008 302.989 208.494 301.475 206.627 301.475C204.76 301.475 203.246 302.989 203.246 304.856C203.246 306.723 204.76 308.237 206.627 308.237Z" fill="#47E6B1"/>
<g opacity="0.5">
<path opacity="0.5" d="M804.982 152.147H803.291V161.727H804.982V152.147Z" fill="#47E6B1"/>
<path opacity="0.5" d="M808.927 157.782V156.091H799.347V157.782H808.927Z" fill="#47E6B1"/>
</g>
<path opacity="0.5" d="M788.64 253.577C790.507 253.577 792.021 252.063 792.021 250.196C792.021 248.329 790.507 246.815 788.64 246.815C786.773 246.815 785.259 248.329 785.259 250.196C785.259 252.063 786.773 253.577 788.64 253.577Z" fill="#F55F44"/>
<path opacity="0.5" d="M90.358 142.824C89.8927 142.621 89.5181 142.254 89.3054 141.794C89.0926 141.333 89.0566 140.81 89.204 140.324C89.228 140.249 89.2431 140.172 89.249 140.094C89.2626 139.871 89.2041 139.65 89.0822 139.463C88.9603 139.277 88.7815 139.134 88.5722 139.057C88.3629 138.98 88.1344 138.972 87.9203 139.035C87.7063 139.098 87.5183 139.228 87.384 139.406C87.3381 139.468 87.2995 139.535 87.269 139.606C87.0661 140.071 86.6994 140.446 86.2386 140.659C85.7777 140.871 85.2547 140.907 84.769 140.76C84.6944 140.736 84.6172 140.721 84.539 140.715C84.3164 140.701 84.0953 140.76 83.9085 140.882C83.7217 141.004 83.5791 141.183 83.5019 141.392C83.4247 141.601 83.417 141.83 83.4799 142.044C83.5427 142.258 83.6729 142.446 83.851 142.58C83.913 142.626 83.9801 142.665 84.051 142.695C84.5163 142.898 84.8909 143.265 85.1036 143.725C85.3164 144.186 85.3525 144.709 85.205 145.195C85.181 145.27 85.1659 145.347 85.16 145.425C85.1464 145.648 85.2049 145.869 85.3268 146.056C85.4487 146.242 85.6276 146.385 85.8368 146.462C86.0461 146.539 86.2747 146.547 86.4887 146.484C86.7027 146.421 86.8907 146.291 87.025 146.113C87.0709 146.051 87.1095 145.984 87.14 145.913C87.3429 145.448 87.7096 145.073 88.1704 144.86C88.6313 144.648 89.1543 144.612 89.64 144.759C89.7146 144.783 89.7918 144.798 89.87 144.804C90.0926 144.818 90.3137 144.759 90.5005 144.637C90.6873 144.515 90.8299 144.336 90.9071 144.127C90.9843 143.918 90.992 143.689 90.9292 143.475C90.8663 143.261 90.7361 143.073 90.558 142.939C90.496 142.893 90.4289 142.854 90.358 142.824Z" fill="#4D8AF0"/>
<path opacity="0.5" d="M640.522 274.991C642.389 274.991 643.903 273.477 643.903 271.61C643.903 269.743 642.389 268.229 640.522 268.229C638.655 268.229 637.141 269.743 637.141 271.61C637.141 273.477 638.655 274.991 640.522 274.991Z" fill="#4D8AF0"/>
<g opacity="0.5">
<path opacity="0.5" d="M111.83 33.248H110.139V42.828H111.83V33.248Z" fill="#47E6B1"/>
<path opacity="0.5" d="M115.774 38.883V37.192H106.194V38.883H115.774Z" fill="#47E6B1"/>
</g>
<g opacity="0.5">
<path opacity="0.5" d="M699.315 18.596H697.624V28.176H699.315V18.596Z" fill="#47E6B1"/>
<path opacity="0.5" d="M703.26 24.231V22.54H693.68V24.231H703.26Z" fill="#47E6B1"/>
</g>
<path opacity="0.5" d="M272.062 31.813C271.597 31.6101 271.222 31.2434 271.009 30.7825C270.797 30.3217 270.761 29.7987 270.908 29.313C270.932 29.2383 270.947 29.1612 270.953 29.083C270.967 28.8603 270.908 28.6392 270.786 28.4525C270.664 28.2657 270.485 28.1231 270.276 28.0459C270.067 27.9687 269.838 27.961 269.624 28.0238C269.41 28.0867 269.222 28.2169 269.088 28.395C269.042 28.457 269.003 28.5241 268.973 28.595C268.77 29.0604 268.404 29.4352 267.943 29.6479C267.482 29.8607 266.959 29.8967 266.473 29.749C266.398 29.725 266.321 29.7099 266.243 29.704C266.02 29.6901 265.799 29.7484 265.612 29.8704C265.424 29.9923 265.282 30.1713 265.204 30.3809C265.127 30.5904 265.12 30.8193 265.183 31.0335C265.246 31.2477 265.376 31.4359 265.555 31.57C265.617 31.6159 265.684 31.6545 265.755 31.685C266.22 31.8879 266.595 32.2546 266.808 32.7154C267.02 33.1763 267.056 33.6993 266.909 34.185C266.885 34.2596 266.87 34.3368 266.864 34.415C266.85 34.6376 266.909 34.8587 267.031 35.0455C267.153 35.2323 267.332 35.3749 267.541 35.4521C267.75 35.5293 267.979 35.537 268.193 35.4741C268.407 35.4113 268.595 35.2811 268.729 35.103C268.775 35.0411 268.814 34.9739 268.844 34.903C269.047 34.4377 269.414 34.0631 269.874 33.8504C270.335 33.6376 270.858 33.6015 271.344 33.749C271.419 33.773 271.496 33.7881 271.574 33.794C271.797 33.8076 272.018 33.7491 272.205 33.6272C272.391 33.5053 272.534 33.3264 272.611 33.1172C272.688 32.9079 272.696 32.6793 272.633 32.4653C272.57 32.2513 272.44 32.0632 272.262 31.929C272.2 31.8827 272.133 31.8438 272.062 31.813Z" fill="#4D8AF0"/>
<path opacity="0.5" d="M461.664 6.762C463.531 6.762 465.045 5.24827 465.045 3.381C465.045 1.51373 463.531 0 461.664 0C459.797 0 458.283 1.51373 458.283 3.381C458.283 5.24827 459.797 6.762 461.664 6.762Z" fill="#F55F44"/>
</g>
<defs>
<clipPath id="clip0">
<rect width="874.706" height="795.799" fill="white"/>
</clipPath>
</defs>
</svg>
