<svg width="351" height="437" viewBox="0 0 351 437" fill="none" xmlns="http://www.w3.org/2000/svg">
<g clip-path="url(#clip0)">
<path d="M175.154 219.284C179.42 215.496 185.019 213.553 190.72 213.884C196.422 214.215 201.758 216.792 205.555 221.048L278.927 303.293C282.724 307.549 284.671 313.135 284.34 318.824C284.008 324.512 281.425 329.836 277.159 333.624C272.894 337.413 267.294 339.355 261.593 339.024C255.891 338.694 250.555 336.117 246.758 331.861C246.758 331.861 202.74 293.478 202.52 287.784C202.301 282.091 201.982 271.809 200.171 268.222C198.359 264.635 173.386 249.616 173.386 249.616C169.589 245.36 167.642 239.773 167.973 234.085C168.305 228.396 170.888 223.072 175.154 219.284V219.284Z" fill="#012C3D"/>
<path d="M199.038 217.125C219.529 227.214 205.513 258.947 202.477 269.614C199.441 280.281 188.909 279.125 178.639 291.385C168.368 303.645 173.638 317.29 176.912 318.831C177.813 320.882 154.071 343.17 154.071 343.17C152.481 345.919 150.363 348.328 147.839 350.261C145.315 352.193 142.435 353.61 139.362 354.432C136.289 355.253 133.084 355.463 129.93 355.048C126.776 354.634 123.734 353.604 120.979 352.017C118.224 350.43 115.81 348.317 113.873 345.799C111.936 343.281 110.516 340.407 109.692 337.341C108.869 334.275 108.659 331.078 109.074 327.931C109.489 324.784 110.522 321.749 112.112 319.001L165.946 225.972C169.158 220.42 174.449 216.369 180.655 214.71C186.861 213.051 193.474 213.92 199.038 217.125V217.125Z" fill="#012C3D"/>
<path d="M112.023 333.939C112.153 331.474 112.768 329.058 113.833 326.83C114.898 324.602 116.393 322.605 118.232 320.953C120.07 319.301 122.217 318.027 124.55 317.203C126.882 316.379 129.354 316.021 131.825 316.15C131.825 316.15 164.143 317.667 176.839 318.881C177.234 320.174 162.398 332.535 164.339 333.939C166.28 335.343 182.57 318.804 184.063 318.882L201.713 319.804C206.703 320.065 211.385 322.294 214.729 325.999C218.072 329.704 219.804 334.582 219.542 339.561C219.281 344.54 217.048 349.211 213.334 352.547C209.62 355.884 204.731 357.611 199.74 357.35L130.367 354.93C119.974 354.387 111.479 344.308 112.023 333.939Z" fill="#012C3D"/>
<path d="M193.838 282.644C194.875 285.79 195.258 289.115 194.962 292.413C194.666 295.711 193.697 298.913 192.115 301.823C189.843 305.32 182.778 312.146 182.778 312.146C182.778 312.146 178.447 311.841 181.138 309.8C192.381 299.089 193.308 295.112 193.838 282.644Z" fill="#012C3D"/>
<path d="M189.244 289.205C190.841 292.067 191.474 295.365 191.049 298.612C190.414 300.51 189.648 302.362 188.755 304.153C188.755 304.153 187.031 304.254 187.815 303.109C190.799 297.269 190.649 295.29 189.244 289.205Z" fill="#012C3D"/>
<path d="M186.446 293.396C187.893 296.339 188.353 299.667 187.759 302.89C187.025 304.753 186.162 306.564 185.176 308.307C185.176 308.307 183.448 308.318 184.292 307.215C186.508 301.321 187.532 299.55 186.446 293.396Z" fill="#012C3D"/>
</g>
<path d="M134 42.6V183H99.8V125.2H46.6V183H12.4V42.6H46.6V97.6H99.8V42.6H134ZM225.089 184.4C211.889 184.4 199.756 181.333 188.689 175.2C177.756 169.067 169.022 160.533 162.489 149.6C156.089 138.533 152.889 126.133 152.889 112.4C152.889 98.6667 156.089 86.3333 162.489 75.4C169.022 64.4667 177.756 55.9333 188.689 49.8C199.756 43.6667 211.889 40.6 225.089 40.6C238.289 40.6 250.356 43.6667 261.289 49.8C272.356 55.9333 281.022 64.4667 287.289 75.4C293.689 86.3333 296.889 98.6667 296.889 112.4C296.889 126.133 293.689 138.533 287.289 149.6C280.889 160.533 272.222 169.067 261.289 175.2C250.356 181.333 238.289 184.4 225.089 184.4ZM225.089 153.2C236.289 153.2 245.222 149.467 251.889 142C258.689 134.533 262.089 124.667 262.089 112.4C262.089 100 258.689 90.1333 251.889 82.8C245.222 75.3333 236.289 71.6 225.089 71.6C213.756 71.6 204.689 75.2667 197.889 82.6C191.222 89.9333 187.889 99.8667 187.889 112.4C187.889 124.8 191.222 134.733 197.889 142.2C204.689 149.533 213.756 153.2 225.089 153.2Z" fill="#012C3D"/>
<path d="M53.6 330.6H98.4V357H19.4V216.6H53.6V330.6ZM329.244 211.6L325.244 307.4H296.244L292.244 211.6H329.244ZM311.244 358.6C305.244 358.6 300.31 356.867 296.444 353.4C292.71 349.8 290.844 345.4 290.844 340.2C290.844 334.867 292.71 330.4 296.444 326.8C300.31 323.2 305.244 321.4 311.244 321.4C317.11 321.4 321.91 323.2 325.644 326.8C329.51 330.4 331.444 334.867 331.444 340.2C331.444 345.4 329.51 349.8 325.644 353.4C321.91 356.867 317.11 358.6 311.244 358.6Z" fill="#012C3D"/>
<defs>
<clipPath id="clip0">
<rect width="198" height="163" fill="white" transform="translate(100 205)"/>
</clipPath>
</defs>
</svg>
